<svg xmlns="http://www.w3.org/2000/svg" version="1.1" xmlns:xlink="http://www.w3.org/1999/xlink" xmlns:svgjs="http://svgjs.dev/svgjs" width="1000" height="623" viewBox="0 0 1000 623"><g transform="matrix(1,0,0,1,-0.6060606060606233,0.2522267206477409)"><svg viewBox="0 0 396 247" data-background-color="#d9bca9" preserveAspectRatio="xMidYMid meet" height="623" width="1000" xmlns="http://www.w3.org/2000/svg" xmlns:xlink="http://www.w3.org/1999/xlink"><g id="tight-bounds" transform="matrix(1,0,0,1,0.2400000000000091,-0.09999999999999432)"><svg viewBox="0 0 395.52 247.2" height="247.2" width="395.52"><g><svg></svg></g><g><svg viewBox="0 0 395.52 247.2" height="247.2" width="395.52"><g transform="matrix(1,0,0,1,0,90.65289180252395)"><svg viewBox="0 0 395.52 65.89421639495208" height="65.89421639495208" width="395.52"><g><svg viewBox="0 0 395.52 65.89421639495208" height="65.89421639495208" width="395.52"><g><svg viewBox="0 0 395.52 65.89421639495208" height="65.89421639495208" width="395.52"><g><svg viewBox="0 0 395.52 65.89421639495208" height="65.89421639495208" width="395.52"><g id="textblocktransform"><svg viewBox="0 0 395.52 65.89421639495208" height="65.89421639495208" width="395.52" id="textblock"><g><svg viewBox="0 0 395.52 35.54019166148102" height="35.54019166148102" width="395.52"><g transform="matrix(1,0,0,1,0,0)"><svg width="395.52" viewBox="3.4 -35.5 401.72 36.1" height="35.54019166148102" data-palette-color="#000000"><path d="M22.7 0L14.6-15.45 10.55-9.95 10.55 0 3.4 0 3.4-34.9 10.55-34.9 10.55-23.6 10.25-18.05 11.05-18.05 14.5-23.6 22.1-34.9 30.2-34.9 19.65-20.35 31.1 0 22.7 0ZM56.5 0L34.9 0 34.9-34.9 56.5-34.9 56.5-28.65 42.05-28.65 42.05-20.75 54.3-20.75 54.3-14.55 42.05-14.55 42.05-6.25 56.5-6.25 56.5 0ZM81.35 0L62.35 0 62.35-34.9 69.5-34.9 69.5-6.25 81.35-6.25 81.35 0ZM85.39-34.9L92.54-34.9 92.54-12.25Q92.54-8.8 93.72-7.28 94.89-5.75 97.94-5.75L97.94-5.75Q100.99-5.75 102.17-7.28 103.34-8.8 103.34-12.25L103.34-12.25 103.34-34.9 110.49-34.9 110.49-13.2Q110.49-9.5 109.84-6.9 109.19-4.3 107.72-2.63 106.24-0.95 103.84-0.18 101.44 0.6 97.94 0.6L97.94 0.6Q94.44 0.6 92.04-0.18 89.64-0.95 88.17-2.63 86.69-4.3 86.04-6.9 85.39-9.5 85.39-13.2L85.39-13.2 85.39-34.9ZM117.09 0L117.09-34.9 132.59-34.9Q136.79-34.9 138.81-32.45 140.84-30 140.84-25.95L140.84-25.95Q140.84-23.75 140.31-22.33 139.79-20.9 138.97-20.08 138.14-19.25 137.09-18.88 136.04-18.5 134.94-18.45L134.94-18.45 134.94-17.65Q136.14-17.65 137.42-17.25 138.69-16.85 139.74-15.93 140.79-15 141.44-13.53 142.09-12.05 142.09-9.95L142.09-9.95Q142.09-7.9 141.54-6.08 140.99-4.25 139.94-2.9 138.89-1.55 137.39-0.78 135.89 0 133.99 0L133.99 0 117.09 0ZM124.24-14.65L124.24-6.05 131.99-6.05Q133.19-6.05 133.92-6.75 134.64-7.45 134.64-9.1L134.64-9.1 134.64-11.6Q134.64-13.25 133.92-13.95 133.19-14.65 131.99-14.65L131.99-14.65 124.24-14.65ZM124.24-28.85L124.24-20.55 130.84-20.55Q132.09-20.55 132.79-21.25 133.49-21.95 133.49-23.55L133.49-23.55 133.49-25.85Q133.49-27.45 132.79-28.15 132.09-28.85 130.84-28.85L130.84-28.85 124.24-28.85ZM161.39 0L146.04 0 146.04-5.65 150.14-5.65 150.14-29.25 146.04-29.25 146.04-34.9 161.39-34.9 161.39-29.25 157.29-29.25 157.29-5.65 161.39-5.65 161.39 0ZM193.54 0L186.49 0 184.34-8.55 173.64-8.55 171.49 0 164.64 0 174.54-34.9 183.64-34.9 193.54 0ZM182.59-14.3L180.44-22.35 179.34-28.4 178.54-28.4 177.44-22.35 175.39-14.3 182.59-14.3ZM208.33-34.9L215.48-34.9 215.48-12.25Q215.48-8.8 216.66-7.28 217.83-5.75 220.88-5.75L220.88-5.75Q223.93-5.75 225.11-7.28 226.28-8.8 226.28-12.25L226.28-12.25 226.28-34.9 233.43-34.9 233.43-13.2Q233.43-9.5 232.78-6.9 232.13-4.3 230.66-2.63 229.18-0.95 226.78-0.18 224.38 0.6 220.88 0.6L220.88 0.6Q217.38 0.6 214.98-0.18 212.58-0.95 211.11-2.63 209.63-4.3 208.98-6.9 208.33-9.5 208.33-13.2L208.33-13.2 208.33-34.9ZM247.18-13.2L247.18 0 240.03 0 240.03-34.9 255.13-34.9Q259.83-34.9 262.28-31.95 264.73-29 264.73-24.05L264.73-24.05Q264.73-20.2 263.28-17.55 261.83-14.9 258.98-13.85L258.98-13.85 265.08 0 257.33 0 251.93-13.2 247.18-13.2ZM247.18-19.15L254.23-19.15Q255.68-19.15 256.5-19.88 257.33-20.6 257.33-22.4L257.33-22.4 257.33-25.4Q257.33-27.2 256.5-27.93 255.68-28.65 254.23-28.65L254.23-28.65 247.18-28.65 247.18-19.15ZM269.83-34.9L276.98-34.9 276.98-12.25Q276.98-8.8 278.15-7.28 279.33-5.75 282.38-5.75L282.38-5.75Q285.43-5.75 286.6-7.28 287.78-8.8 287.78-12.25L287.78-12.25 287.78-34.9 294.93-34.9 294.93-13.2Q294.93-9.5 294.28-6.9 293.63-4.3 292.15-2.63 290.68-0.95 288.28-0.18 285.88 0.6 282.38 0.6L282.38 0.6Q278.88 0.6 276.48-0.18 274.08-0.95 272.6-2.63 271.13-4.3 270.48-6.9 269.83-9.5 269.83-13.2L269.83-13.2 269.83-34.9ZM301.52 0L301.52-34.9 317.02-34.9Q321.22-34.9 323.25-32.45 325.27-30 325.27-25.95L325.27-25.95Q325.27-23.75 324.75-22.33 324.22-20.9 323.4-20.08 322.57-19.25 321.52-18.88 320.47-18.5 319.37-18.45L319.37-18.45 319.37-17.65Q320.57-17.65 321.85-17.25 323.12-16.85 324.17-15.93 325.22-15 325.87-13.53 326.52-12.05 326.52-9.95L326.52-9.95Q326.52-7.9 325.97-6.08 325.42-4.25 324.37-2.9 323.32-1.55 321.82-0.78 320.32 0 318.42 0L318.42 0 301.52 0ZM308.67-14.65L308.67-6.05 316.42-6.05Q317.62-6.05 318.35-6.75 319.07-7.45 319.07-9.1L319.07-9.1 319.07-11.6Q319.07-13.25 318.35-13.95 317.62-14.65 316.42-14.65L316.42-14.65 308.67-14.65ZM308.67-28.85L308.67-20.55 315.27-20.55Q316.52-20.55 317.22-21.25 317.92-21.95 317.92-23.55L317.92-23.55 317.92-25.85Q317.92-27.45 317.22-28.15 316.52-28.85 315.27-28.85L315.27-28.85 308.67-28.85ZM331.42-34.9L338.57-34.9 338.57-12.25Q338.57-8.8 339.75-7.28 340.92-5.75 343.97-5.75L343.97-5.75Q347.02-5.75 348.2-7.28 349.37-8.8 349.37-12.25L349.37-12.25 349.37-34.9 356.52-34.9 356.52-13.2Q356.52-9.5 355.87-6.9 355.22-4.3 353.75-2.63 352.27-0.95 349.87-0.18 347.47 0.6 343.97 0.6L343.97 0.6Q340.47 0.6 338.07-0.18 335.67-0.95 334.2-2.63 332.72-4.3 332.07-6.9 331.42-9.5 331.42-13.2L331.42-13.2 331.42-34.9ZM373.32 0.6L373.32 0.6Q365.47 0.6 361.02-4.9L361.02-4.9 365.62-9.5Q368.62-5.65 373.47-5.65L373.47-5.65Q378.47-5.65 378.47-10.05L378.47-10.05Q378.47-11.85 377.57-12.85 376.67-13.85 374.77-14.25L374.77-14.25 371.57-14.85Q366.72-15.75 364.44-18.23 362.17-20.7 362.17-25.1L362.17-25.1Q362.17-30.2 365.17-32.85 368.17-35.5 373.97-35.5L373.97-35.5Q381.37-35.5 385.22-30.7L385.22-30.7 380.62-26.1Q379.32-27.7 377.69-28.48 376.07-29.25 373.87-29.25L373.87-29.25Q371.47-29.25 370.39-28.35 369.32-27.45 369.32-25.45L369.32-25.45Q369.32-23.7 370.14-22.8 370.97-21.9 372.82-21.5L372.82-21.5 376.02-20.85Q378.57-20.3 380.39-19.53 382.22-18.75 383.39-17.55 384.57-16.35 385.09-14.7 385.62-13.05 385.62-10.85L385.62-10.85Q385.62-5.25 382.47-2.33 379.32 0.6 373.32 0.6ZM405.12 0L389.77 0 389.77-5.65 393.87-5.65 393.87-29.25 389.77-29.25 389.77-34.9 405.12-34.9 405.12-29.25 401.02-29.25 401.02-5.65 405.12-5.65 405.12 0Z" opacity="1" transform="matrix(1,0,0,1,0,0)" fill="#000000" class="undefined-text-0" data-fill-palette-color="primary" id="text-0"></path></svg></g></svg></g><g transform="matrix(1,0,0,1,0,43.93037794815681)"><svg viewBox="0 0 395.52 21.96383844679527" height="21.96383844679527" width="395.52"><g transform="matrix(1,0,0,1,0,0)"><svg width="395.52" viewBox="1.75 -36.55 677.99 37.65" height="21.96383844679527" data-palette-color="#000000"><path d="M31.45-3.05L31.45-3.05Q31.4-1.95 30.5-1.03 29.6-0.1 28.1 0L28.1 0Q25.25 0.2 21.25 0.2 17.25 0.2 13.9 0L13.9 0Q12.4-0.1 11.5-1.03 10.6-1.95 10.55-3.05L10.55-3.05Q10.4-10.65 10.4-16.03 10.4-21.4 10.45-23.9L10.45-23.9Q10.45-25.8 8.75-25.8L8.75-25.8 4.25-25.8Q3.2-25.8 2.55-26.3 1.9-26.8 1.83-28.05 1.75-29.3 1.75-30.65 1.75-32 1.83-32.98 1.9-33.95 2.63-34.48 3.35-35 4.2-35L4.2-35Q10.7-35.1 21.8-35.1 32.9-35.1 37.7-35L37.7-35Q38.55-34.95 39.28-34.45 40-33.95 40.08-32.98 40.15-32 40.15-30.7 40.15-29.4 40.1-28.2L40.1-28.2Q39.95-25.95 37.65-25.95L37.65-25.95 33.15-25.95Q31.45-25.95 31.45-24.2L31.45-24.2Q31.6-17.9 31.6-12.8 31.6-7.7 31.45-3.05ZM80.38-12.5Q80.38-6.9 83.33-6.9 86.28-6.9 86.28-12.5L86.28-12.5Q86.28-15.05 85.68-16.43 85.08-17.8 83.33-17.8 81.58-17.8 80.98-16.43 80.38-15.05 80.38-12.5L80.38-12.5ZM101.98-12.5Q101.98 1.1 83.33 1.1 64.68 1.1 64.68-12.5L64.68-12.5Q64.68-18.95 69.43-22.5 74.18-26.05 83.33-26.05 92.48-26.05 97.23-22.5 101.98-18.95 101.98-12.5L101.98-12.5ZM196.99-3.05L196.99-3.05Q196.94-1.95 196.04-1.03 195.14-0.1 193.64 0L193.64 0Q190.79 0.2 186.79 0.2 182.79 0.2 179.44 0L179.44 0Q177.94-0.1 177.04-1.03 176.14-1.95 176.09-3.05L176.09-3.05Q175.94-10.65 175.94-16.03 175.94-21.4 175.99-23.9L175.99-23.9Q175.99-25.8 174.29-25.8L174.29-25.8 169.79-25.8Q168.74-25.8 168.09-26.3 167.44-26.8 167.37-28.05 167.29-29.3 167.29-30.65 167.29-32 167.37-32.98 167.44-33.95 168.17-34.48 168.89-35 169.74-35L169.74-35Q176.24-35.1 187.34-35.1 198.44-35.1 203.24-35L203.24-35Q204.09-34.95 204.82-34.45 205.54-33.95 205.62-32.98 205.69-32 205.69-30.7 205.69-29.4 205.64-28.2L205.64-28.2Q205.49-25.95 203.19-25.95L203.19-25.95 198.69-25.95Q196.99-25.95 196.99-24.2L196.99-24.2Q197.14-17.9 197.14-12.8 197.14-7.7 196.99-3.05ZM231.57-2.35L231.57-2.35 231.47-18.7Q231.47-26.2 231.62-33.3L231.62-33.3Q231.67-34.95 232.25-35.75 232.82-36.55 234.47-36.55L234.47-36.55 244.07-36.55Q245.72-36.55 246.3-35.77 246.87-35 247-32.98 247.12-30.95 247.22-22.15L247.22-22.15Q251.12-26.1 256.6-26.1 262.07-26.1 265.22-23.4 268.37-20.7 268.45-15.95 268.52-11.2 268.52-7.45 268.52-3.7 268.47-2.4 268.42-1.1 267.8-0.53 267.17 0.05 265.37 0.05L265.37 0.05 255.77 0.15Q254.17 0.15 253.55-0.43 252.92-1 252.92-2.15L252.92-2.15 252.97-14.35Q252.97-15.85 252.22-16.6 251.47-17.35 250.35-17.35 249.22-17.35 248.32-16.57 247.42-15.8 247.37-14.4L247.37-14.4 247.07-2.35Q247.02-1.4 246.17-0.75 245.32-0.1 244.1 0 242.87 0.1 241.37 0.1L241.37 0.1 234.37 0Q233.42 0 232.5-0.68 231.57-1.35 231.57-2.35ZM301.71-23.93Q304.01-25.05 306.43-25.55 308.86-26.05 312.43-26.05 316.01-26.05 319.26-25.18 322.51-24.3 324.11-22.8L324.11-22.8Q326.91-20.05 326.91-16.35L326.91-16.35Q326.91-10.55 317.11-10.55L317.11-10.55Q313.66-10.55 309.96-11.2L309.96-11.2Q310.11-7.9 311.18-6.55 312.26-5.2 315.01-5.2 317.76-5.2 319.56-5.8 321.36-6.4 322.46-7.03 323.56-7.65 324.33-7.65 325.11-7.65 325.66-6.95L325.66-6.95Q326.51-6.05 326.51-4.48 326.51-2.9 325.88-2.33 325.26-1.75 323.91-1.2L323.91-1.2Q319.16 0.8 310.41 0.8L310.41 0.8Q303.16 0.8 298.48-2.68 293.81-6.15 293.81-12.05L293.81-12.05Q293.81-14.9 294.86-17.28 295.91-19.65 297.66-21.23 299.41-22.8 301.71-23.93ZM313.31-20.35L313.31-20.35Q310.26-20.35 310.01-15.4L310.01-15.4Q312.41-15.2 312.51-15.2L312.51-15.2Q315.81-15.2 315.81-17.4L315.81-17.4Q315.81-20.35 313.31-20.35ZM429.62-32.35L429.62-32.35 436.57-32.25Q438.12-32.25 438.97-31.65 439.82-31.05 440.22-29.65L440.22-29.65 443.27-19.55Q443.37-19.15 443.62-19 443.87-18.85 444.12-19 444.37-19.15 444.47-19.5L444.47-19.5 448.67-33.1Q448.97-34.1 449.59-34.5 450.22-34.9 451.57-34.9L451.57-34.9 457.22-34.9Q458.17-34.9 458.57-34L458.57-34Q458.77-33.6 458.77-33.1 458.77-32.6 457.84-30.28 456.92-27.95 453.72-18.1 450.52-8.25 448.17-3.15L448.17-3.15Q446.17 1.05 440.42 1.05L440.42 1.05Q437.32 1.05 434.57-0.38 431.82-1.8 430.89-3.93 429.97-6.05 428.44-10.15 426.92-14.25 426.32-15.85L426.32-15.85Q423.72-7.65 421.67-3.2L421.67-3.2Q420.72-1.2 418.19-0.1 415.67 1 412.62 1L412.62 1Q405.32 1 402.92-4.4L402.92-4.4Q395.27-21.8 392.52-29.95L392.52-29.95Q392.12-31.25 392.12-32.15L392.12-32.15Q392.12-34.95 394.77-34.95L394.77-34.95 409.07-35.1Q410.92-35.1 411.82-34.45 412.72-33.8 413.27-31.95L413.27-31.95 416.77-19.65Q416.87-19.2 417.12-19.05L417.12-19.05Q417.67-18.75 417.97-19.6L417.97-19.6 421.32-29.8Q422.07-32.2 424.42-32.25L424.42-32.25Q427.52-32.35 429.62-32.35ZM500.1-12.5Q500.1-6.9 503.05-6.9 506-6.9 506-12.5L506-12.5Q506-15.05 505.4-16.43 504.8-17.8 503.05-17.8 501.3-17.8 500.7-16.43 500.1-15.05 500.1-12.5L500.1-12.5ZM521.7-12.5Q521.7 1.1 503.05 1.1 484.4 1.1 484.4-12.5L484.4-12.5Q484.4-18.95 489.15-22.5 493.9-26.05 503.05-26.05 512.2-26.05 516.95-22.5 521.7-18.95 521.7-12.5L521.7-12.5ZM550.68-25.45L550.68-25.45 560.43-25.45Q562.13-25.45 562.78-24.73 563.43-24 563.43-22.55L563.43-22.55 563.43-20.75Q566.23-26.05 572.53-26.05L572.53-26.05Q574.63-26.05 575.98-24.7 577.33-23.35 577.33-21.1 577.33-18.85 576.13-16.63 574.93-14.4 572.78-14.4L572.78-14.4Q571.78-14.4 569.98-15.43 568.18-16.45 567.08-16.45 565.98-16.45 564.81-15.65 563.63-14.85 563.63-13L563.63-13Q563.63-4.95 563.33-2.35L563.33-2.35Q563.18-1.5 562.48-0.85 561.78-0.2 560.01-0.08 558.23 0.05 556.48 0.05 554.73 0.05 550.53-0.15L550.53-0.15Q549.33-0.2 548.63-0.85 547.93-1.5 547.83-2.35L547.83-2.35Q547.48-5.6 547.48-12.3 547.48-19 547.68-21.48 547.88-23.95 548.43-24.7 548.98-25.45 550.68-25.45ZM604.36-36.55L604.36-36.55 613.96-36.55Q615.61-36.55 616.16-35.77 616.71-35 616.86-33.3L616.86-33.3Q617.16-27.3 617.16-16.73 617.16-6.15 616.76-2.15L616.76-2.15Q616.66-1.35 615.96-0.7 615.26-0.05 613.49 0.08 611.71 0.2 609.31 0.2 606.91 0.2 605.01 0.1L605.01 0.1Q601.76-0.15 601.61-2.15L601.61-2.15Q601.11-6.5 601.11-17.57 601.11-28.65 601.51-33.3L601.51-33.3Q601.66-35 602.19-35.77 602.71-36.55 604.36-36.55ZM660.34-17.8L660.34-17.8Q657.39-17.8 657.39-12.93 657.39-8.05 660.34-8.05L660.34-8.05Q661.49-8.05 662.42-8.83 663.34-9.6 663.34-11L663.34-11 663.34-14.85Q663.34-16.25 662.42-17.03 661.49-17.8 660.34-17.8ZM676.84-0.1L676.84-0.1 671.54 0Q668.64 0 667.64-0.1L667.64-0.1Q664.54-0.3 664.54-3.6L664.54-3.6Q662.69-1.5 659.77-0.2 656.84 1.1 654.39 1.1L654.39 1.1Q649.39 1.1 646.17-2.2 642.94-5.5 642.94-12.4L642.94-12.4Q642.94-21 648.79-24.4L648.79-24.4Q651.89-26.25 656.04-26.25 660.19-26.25 663.09-24.4L663.09-24.4Q664.04-23.75 664.14-24.83 664.24-25.9 664.24-28L664.24-28 664.24-32.15Q664.24-33.15 664.29-34.18 664.34-35.2 664.89-35.88 665.44-36.55 667.14-36.55L667.14-36.55 676.74-36.55Q678.39-36.55 678.97-35.75 679.54-34.95 679.59-33.3L679.59-33.3Q679.74-26.2 679.74-18.8L679.74-18.8Q679.74-18.8 679.64-2.45L679.64-2.45Q679.64-1.45 678.72-0.78 677.79-0.1 676.84-0.1Z" opacity="1" transform="matrix(1,0,0,1,0,0)" fill="#000000" class="undefined-text-1" data-fill-palette-color="secondary" id="text-1"></path></svg></g></svg></g></svg></g></svg></g></svg></g></svg></g></svg></g><g mask="url(#f13dbf20-7830-4e2e-ba5f-917b10a64947)"><g transform="matrix(2.9793438639125145, 0, 0, 2.9793438639125145, 75.30896719319564, 1)"><svg xmlns="http://www.w3.org/2000/svg" xmlns:xlink="http://www.w3.org/1999/xlink" version="1.1" x="0" y="0" viewBox="10.59999999999999 15 82.2 82.30000000000001" enable-background="new 0 0 100 100" xml:space="preserve" height="82.30000000000001" width="82.2" class="icon-none" data-fill-palette-color="accent" id="none"><g fill="#000000" data-fill-palette-color="accent"><path d="M78.5 78.1c0-0.7 0.1-1.8-0.6-2.5-0.4-0.4-1.2-0.8-2.4-0.4-0.4 0.1-0.6 0.5-0.6 0.8 0 0.7-0.4 2.2-0.9 2.6-1.4 0.9-2.5 2.5-2.5 3.7 0 0.2 0 0.4-0.1 0.7-0.1 0.6-0.1 1.3 0.1 2 0.4 1.1 1.3 1.9 2.4 1.9 0 0 0.3 0 0.3 0 1.4-0.2 2.4-2.3 2.6-3 0.2-0.8 0.7-1.9 0.9-2.1 0.9-0.8 1-2.6 0.9-3.3C78.5 78.4 78.5 78.2 78.5 78.1zM76.7 81.1c-0.4 0.4-0.9 1.8-1 2.4-0.1 0.6-0.9 2-1.5 2.1-0.1 0-0.1 0-0.1 0 0 0-0.1 0-0.1 0-0.6 0-1-0.4-1.2-1.1-0.2-0.7 0-1.5 0-2.2 0-0.7 0.7-1.9 1.8-2.6 1-0.7 1.2-3 1.2-3 2-0.7 1.5 1.6 1.5 2.2C77.3 79.4 77.1 80.6 76.7 81.1z" fill="#000000" data-fill-palette-color="accent"></path><g fill="#000000" data-fill-palette-color="accent"><path d="M77.5 39.3c0 0.4 0.1 0.7 0.4 1 0.4 0.4 1 0.6 1.8 0.6 0.2 0 0.4 0 0.5 0 0 0 2.3-0.4 2.5-1.7 0 0 0.2-3.1-1-3.6 0 0-0.3-0.2-0.2-0.6 0 0 0.5-2.9-0.5-3.6-0.2-0.1-0.9-0.5-1.5-0.5-0.5 0-0.9 0.3-1 0.5-0.3 0.5-0.8 1.1-0.9 1.2-1.1 0.6-0.9 2.6-0.7 3.4C77.2 36.8 77.5 38.8 77.5 39.3zM80.7 38.7c-0.2 0.1-0.6 0.2-0.8 0.3-0.1 0-0.4 0-0.6 0-0.1-1-0.4-2.8-0.6-3.5-0.1-0.5-0.1-1.1 0-1.3 0.3-0.2 0.6-0.6 1-1.1 0 0.4 0 1.1-0.1 1.6" fill="#000000" data-fill-palette-color="accent"></path><path d="M92.7 52.6c-1.5-18.1-14.8-32.9-32.2-36.7-1-0.2-2-0.4-3.1-0.5-0.6-0.1-1.3-0.2-1.9-0.2-0.3 0-0.7-0.1-1-0.1-0.9-0.1-1.8-0.1-2.7-0.1-0.3 0-0.6 0-0.9 0-0.7 0-1.4 0-2.1 0.1-0.8 0.1-1.7 0.1-2.5 0.3-0.4 0.1-0.9 0.1-1.3 0.2-0.3 0.1-0.7 0.1-1 0.2 0 0 0 0 0 0 0 0 0 0 0 0-0.4 0.1-0.8 0.2-1.2 0.2-0.4 0.1-0.8 0.2-1.1 0.3-1.5 0.4-2.9 0.8-4.3 1.3-0.2 0.1-0.4 0.2-0.7 0.3-0.1 0-0.2 0.1-0.2 0.1-0.2 0.1-0.4 0.2-0.7 0.3-0.1 0-0.2 0.1-0.3 0.1-0.7 0.3-1.4 0.6-2.1 1-0.4 0.2-0.7 0.4-1.1 0.6-12.9 6.9-21.7 20.6-21.7 36.2 0 22.7 18.4 41.1 41.1 41.1 21.2 0 38.7-16.1 40.9-36.8 0.1-1.2 0.2-2.5 0.2-3.8 0-0.2 0-0.4 0-0.5C92.8 54.9 92.8 53.7 92.7 52.6zM60.5 18C76 21.5 87.9 34.2 90.4 50.1c-0.2-0.2-0.4-0.3-0.5-0.5-0.5-0.5-1-0.8-1.2-1.2-1.2-1.4-3.9-1.3-5.5-1.2-0.3 0-0.5 0-0.6 0-0.5-0.1-1.9-1.4-3-2.7-0.3-0.3-0.7-0.4-1-0.3l-0.7 0.2c-0.3 0.1-0.5 0.3-0.6 0.6-0.1 0.3-0.1 0.6 0.1 0.8l2.4 4.1c0.2 0.3 0.5 0.5 0.9 0.5l2.8-0.1c0.9 0.5 2.3 1.5 2.1 2.1-0.6 0.6-5.6 3-10.3 5.1-0.6-1.2-1.7-3.5-2.7-6.4-0.6-1.6-2-3.6-3.1-5.1-0.2-0.3-0.6-0.4-0.9-0.4-0.4 0.1-0.7 0.3-0.7 0.7-0.3 1.3-0.2 3 0.4 4.3 0.3 0.6 0.7 1.5 1.2 2.5 0.8 1.7 1.8 3.8 2 4.4 0.2 0.5 0 2.3-0.3 3.7-0.1 0.3 0 0.6 0.2 0.8 0.2 0.2 0.5 0.3 0.8 0.3 5.2-0.5 5.6-1 5.8-1.3 0.1-0.1 0.3-0.2 0.6-0.4-0.1 0.4-0.3 0.9-0.5 1.5l-0.6 1.6c-0.7 2-2.8 4.3-6.3 6.7l-0.2 0.1c-1 0.7-0.8 2.4-0.6 4.5 0.1 0.8 0.2 1.6 0.2 2.1-0.1 0.5-1.2 2.2-6.2 7l-0.7 0.7c-0.8 0.8-1.4 1.9-1.9 2.7-0.3 0.5-0.5 1-0.7 1.1-0.4 0.4-3.1 1.2-4.4 1.2-0.1 0-0.2 0-0.2 0-0.3-0.1-0.7-0.2-0.9-0.2-0.1-0.6-0.6-1.4-1.9-3.6-0.9-1.6-2.5-4.2-2.5-4.9-0.1-1 0.4-1.9 0.9-2.9 0.2-0.4 0.4-0.8 0.6-1.3 0.9-2.1-4.3-11.3-5-11.9-0.8-0.7-2.7-0.8-4.2-0.8-1 0-2.6 0.6-3.4 1-0.6-0.2-2.5-1-8.9-4.5l-0.2-0.1c-0.9-1-0.9-10-0.4-12.3 0.4-1.5 6.3-5.8 7.5-6.4 0.8-0.4 9.6-2.6 10.5-2.7 0.1 0.1 0.2 0.4 0.2 0.7 0.1 0.9 0.5 3.9 2.4 4.4 0.3 0.1 0.6 0.1 0.9 0.1 0.9 0 2.8-0.4 3.6-0.9 0.6 0 1.9 0.2 3.1 0.4 1.8 0.2 3.6 0.5 4.5 0.5 0.3 0 0.5 0 0.7-0.1 0.3-0.1 1.3-0.2 1.9-0.3 0.8-0.1 1.6-0.2 2.1-0.3l0.8-0.2c0.4-0.1 0.7-0.5 0.7-1l-0.3-3c0-0.3-0.1-0.5-0.3-0.6-0.2-0.2-0.4-0.2-0.7-0.2 0 0-0.4 0-1 0-0.6 0-1.1 0-1.5-0.1-0.8-0.2-1.4-0.8-1.8-2 0.4-0.1 1.4-0.3 3.9-0.3l2.5 0c0.4 0 0.8 0 1 0 1-0.1 1.5-0.6 1.8-1 0.5-0.9 0.1-2.1-0.2-2.9-0.8-1.8-6.1-3.4-8.2-3.4 0 0-0.2 0-0.2 0-2.3 0.1-2.8 3-2.9 4.4l-1.1 0.2c-0.4 0.1-0.8 0.4-0.8 0.8 0 0-0.1 0.9-0.6 1.8-0.1 0.1-0.3 0.5-1 0.5 0 0-0.1 0-0.1 0-0.2-0.1-0.7-0.6-0.3-1.9 0.6-1.9-2.6-3.7-5.4-5-0.4-0.2-0.9-0.1-1.1 0.3-0.3 0.3-0.3 0.8 0 1.2l2.5 3.4 0.2 0.6-0.1 0c-0.3 0-0.6 0.1-0.7 0.3-0.1 0.1-0.3 0.3-0.4 0.4 0-0.5 0-0.9-0.2-1.4-1-3.6-4.5-4.1-4.7-4.1-0.3 0-0.5 0-0.7 0.2-0.5 0.4-1.1 0.7-1.3 0.8-0.1 0-0.1 0-0.2 0-0.6-0.1-1.5-0.1-2.1 0.2-1 0.5-1.5 1.5-2.1 2.4-0.2 0.3-0.4 0.6-0.5 0.8-0.2 0.3-0.3 0.6-0.5 1.1-0.2 0.5-1.1 0.8-2.6 0.8-0.9 0-1.8-0.1-2.5-0.2 0-0.8 0-2.3 0-3.5 0.1 0 0.3 0 0.6 0 1 0 2.2 0.1 2.9 0.1 0.4 0 0.6 0 0.7 0 0.5 0 0.9-0.2 1.1-0.6 0.6-0.9 0.1-2.5-0.4-3.7-0.1-0.3-0.4-0.5-0.8-0.6-0.2 0-0.3 0-0.5-0.1 0.7-0.1 1.5-0.1 1.7-0.2 0.6-0.1 1-0.5 1.4-0.9 0.1-0.1 0.3-0.3 0.3-0.3 0.7-0.3 4.4-2 4.8-2.2 0.2-0.1 0.3-0.2 0.4-0.4 0.1-0.2 1-1.7 0.6-3.2-0.1-0.3 0-0.6 0.2-0.8l1.3 1.9c0.2 0.3 0.5 0.4 0.8 0.4l5.6-0.1c0.3 0 0.5-0.1 0.7-0.3 0.1-0.1 0.8-0.9 1.2-2.3 0.1-0.2 0.9-0.6 1.3-0.7C59.5 18.9 60.2 18.6 60.5 18zM62.9 34.9c0.1-0.2 0.2-0.4 0.2-0.6 0-1.1 0.3-3.3 1.3-3.3 2.1 0 6.1 1.6 6.5 2.2 0.4 0.9 0.3 1.2 0.3 1.2 0 0-0.1 0.1-0.3 0.1-0.2 0-0.5 0-0.8 0l-2.5 0C65.2 34.4 63.8 34.5 62.9 34.9zM55.4 34.3c-0.1 0.2-0.1 0.4-0.1 0.6l-0.4-1c0 0 0-0.1-0.1-0.1C55.1 34 55.4 34.2 55.4 34.3zM54 17c-0.1 0.4-0.2 0.8-0.3 0.9-0.1 0.2-0.2 0.2-0.3 0.2-0.4 0.3-1.2-0.4-1.5-1.2C52.6 17 53.3 17 54 17zM41.6 18.3c-0.3 0.2-0.6 0.5-0.8 0.8-0.2 0.3-0.5 0.6-0.7 0.7 0 0-0.2 0.1-0.5 0.1-0.7 0-1.4-0.2-1.4-0.2-0.1-0.1-0.2-0.1-0.3-0.2C38.6 19.1 40 18.7 41.6 18.3zM51.7 95.2c-21.6 0-39.1-17.6-39.1-39.1 0-15.9 9.5-29.6 23.1-35.7 0.1 0.1 0.1 0.1 0.2 0.2 0 0 0.7 0.4 0.8 0.5 0.5 0.6 2.1 0.8 2.8 0.8 0.6 0 1.1-0.1 1.4-0.3 0.6-0.3 1-0.8 1.3-1.2 0.1-0.2 0.3-0.4 0.2-0.4 0.4 0 0.7-0.2 0.9-0.5 0.3-0.4 0.3-1 0.3-1.6 0.2 0 0.5-0.1 0.7-0.1 0.2 0.3 0.4 0.5 0.6 0.7 0.3 0.3 0.8 0.3 1.1 0.1 0.8-0.5 1.8-1 2.7-1.4 0.4 0 0.7-0.1 1.1-0.1 0.6 1.4 2.1 3 3.6 3 0.5 0 1.2-0.2 1.8-0.9 0.4-0.5 0.6-1.3 0.7-2 0.6 0.1 1.3 0.1 2.1 0.3 0 0 0 0 0 0-0.9 0.4-2.1 0.9-2.4 2-0.1 0.5-0.4 1-0.5 1.2l-4.6 0.1-1.5-2.2c-0.3-0.4-0.7-0.5-1.2-0.3-0.9 0.4-2.5 1.6-1.9 3.5 0.1 0.4-0.1 1-0.3 1.4-1.6 0.8-4 1.8-4.4 2-0.5 0.2-0.8 0.6-1 0.8-0.1 0.1-0.3 0.3-0.2 0.3-0.3 0-2.3 0.2-2.8 0.3-0.6 0.1-1.1 0.2-1.4 0.7-0.3 0.5-0.1 1 0 1.2 0 1.1 1.2 1.6 2.5 1.7 0.1 0.4 0.3 0.8 0.3 1.1 0 0 0 0 0 0-0.8-0.1-2-0.1-3-0.1-1 0-2.4 0-2.5 1.2-0.1 2.1 0 5 0 5.1 0 0.4 0.3 0.8 0.7 0.9 0.1 0 1.8 0.4 3.6 0.4 2.4 0 3.9-0.7 4.4-2.1 0 0 0.1-0.2 0.1-0.2 0-0.1 0.1-0.3 0.1-0.4 0.2-0.3 0.4-0.7 0.7-1 0.4-0.7 0.8-1.4 1.3-1.6 0.1 0 0.6 0 1 0 0.2 0 0.4 0.1 0.6 0 0.7-0.1 1.5-0.5 2-0.9 0.7 0.2 2.2 0.8 2.7 2.6 0.1 0.2 0.1 0.6 0.1 1 0 0.9 0.1 1.8 0.9 2.3 0.1 0.1 0.4 0.1 0.5 0.1 0.2 0 0.7 0 2-1.4l1.1 0c0.2 0 0.5-0.1 0.6-0.2 0.4 0.9 1.1 1.4 1.7 1.6 0 0 0.2 0 0.5 0 1.2 0 2.2-0.6 2.7-1.5 0.4-0.7 0.6-1.3 0.7-1.7l1.2-0.2c-0.1 0.1-0.2 0.2-0.3 0.3-0.3 0.4-0.4 0.8-0.2 1.3 0.8 2.5 2.2 3.4 3.3 3.6 0.6 0.1 1.4 0.2 2.2 0.2l0.1 1.3c-0.3 0.1-1.1 0.2-1.8 0.3-1.2 0.1-2 0.2-2.4 0.4-0.7 0-2.6-0.2-4.2-0.5-1.6-0.2-2.9-0.4-3.5-0.4-0.1 0-0.5 0-0.8 0.3-0.2 0.2-1.6 0.6-2.7 0.6-0.2 0-0.4 0-0.5 0-0.3-0.1-0.9-1.4-1-2.8-0.1-1.1-0.8-2.3-2.1-2.3 0 0 0 0 0 0C47.3 37.5 38 39.8 37 40.3c-0.5 0.2-7.8 4.9-8.5 7.7-0.3 1.5-1.2 13 1.2 14.4l0.3 0.1c8 4.4 9.3 4.8 9.9 4.8 0.2 0 0.5-0.1 0.6-0.2 0.4-0.3 1.9-0.9 2.6-0.9 1.5 0 2.7 0.2 2.9 0.3 0.8 1 4.7 8.5 4.5 9.8-0.2 0.4-0.3 0.7-0.5 1.1-0.6 1.1-1.2 2.4-1.1 3.9 0.1 1.1 1.2 3 2.8 5.7 0.6 1.1 1.5 2.6 1.6 2.8-0.2 1.4 1.1 1.6 1.5 1.7 0.2 0 0.4 0.1 0.7 0.2 0.2 0.1 0.5 0.1 0.8 0.1 1.5 0 5-0.9 5.8-1.8 0.3-0.3 0.6-0.9 0.9-1.5 0.4-0.8 1-1.7 1.6-2.3l0.7-0.7c4.9-4.7 6.7-6.9 6.8-8.2 0-0.7-0.1-1.5-0.2-2.4-0.1-0.9-0.3-2.5-0.2-2.7l0.2-0.1c3.8-2.6 6.1-5.2 7-7.6l0.6-1.6c1.1-3.2 1.4-3.8 0.5-4.3-0.2-0.1-0.5-0.2-0.7-0.2-0.7 0-2.4 0.7-3.1 1.5-0.4 0.2-1.8 0.4-3.3 0.6 0.1-0.7 0.2-1.6 0.2-2.3 0.3 0.7 0.5 1 0.6 1.1 0.2 0.4 0.8 0.6 1.2 0.4 11.4-5 11.9-5.9 12-6.3 0.8-1.7-0.7-3.3-2.1-4.3 1.7 0.1 2.1 0.4 2.3 0.6 0.3 0.4 0.8 0.8 1.4 1.4 0.7 0.6 1.5 1.3 2.1 2.1 0.1 1 0.1 2 0.1 3C90.8 77.6 73.3 95.2 51.7 95.2z" fill="#000000" data-fill-palette-color="accent"></path></g></g></svg></g></g></svg></g><defs><mask id="f13dbf20-7830-4e2e-ba5f-917b10a64947"><rect width="640" height="400" fill="white"></rect><rect width="435.072" height="82.67458896830367" fill="black" x="102.464" y="158.66270551584816" id="transform-me" transform="matrix(1,0,0,1,-122.24000000000001,-76.4)"></rect></mask></defs></svg><rect width="395.52" height="247.2" fill="none" stroke="none" visibility="hidden"></rect></g></svg></g></svg>